M48
; DRILL file {KiCad (5.1.9)-1} date 03/12/21 00:20:17
; FORMAT={-:-/ absolute / inch / decimal}
; #@! TF.CreationDate,2021-03-12T00:20:17-08:00
; #@! TF.GenerationSoftware,Kicad,Pcbnew,(5.1.9)-1
FMAT,2
INCH
T1C0.0100
T2C0.0150
T3C0.0200
T4C0.0276
T5C0.0295
T6C0.0315
T7C0.0320
T8C0.0343
T9C0.0350
T10C0.0354
T11C0.0360
T12C0.0394
T13C0.0400
T14C0.0433
T15C0.0512
T16C0.0598
T17C0.0984
%
G90
G05
T1
X1.6768Y-4.9392
X1.7768Y-4.9002
X1.8768Y-4.8592
X2.7668Y-5.5302
X2.8313Y-5.5302
X2.8958Y-5.5302
X3.2703Y-3.0422
X3.3703Y-3.0422
X3.5228Y-5.7092
T2
X2.6468Y-6.4642
T3
X4.8518Y-5.1192
T4
X1.5962Y-3.1687
X1.5962Y-3.3687
X1.7821Y-3.1687
X1.7821Y-3.3687
X1.9679Y-3.1687
X1.9679Y-3.3687
X2.1538Y-3.1687
X2.1538Y-3.3687
T5
X3.1618Y-5.1202
X3.2118Y-5.1702
X3.2618Y-5.1202
X4.5372Y-6.2402
X4.5872Y-6.2902
X4.6372Y-6.2402
T6
X1.5318Y-6.2783
X1.5318Y-6.4752
X1.6258Y-5.0557
X1.6258Y-5.3557
X1.7258Y-5.0557
X1.7258Y-5.3557
X1.7722Y-6.2783
X1.7722Y-6.4752
X1.8258Y-5.0557
X1.8258Y-5.3557
X1.9258Y-5.0557
X1.9258Y-5.3557
X1.9768Y-6.6504
X1.9768Y-6.9504
X1.9989Y-6.2783
X1.9989Y-6.4752
X2.0258Y-5.0557
X2.0258Y-5.3557
X2.1258Y-5.0557
X2.1258Y-5.3557
X2.1328Y-5.4962
X2.1328Y-5.6931
X2.1618Y-6.6504
X2.1618Y-6.9504
X2.1901Y-6.3276
X2.1901Y-6.426
X2.2258Y-5.0557
X2.2258Y-5.3557
X2.2767Y-5.7558
X2.3258Y-5.0557
X2.3258Y-5.3557
X2.3468Y-6.6504
X2.3468Y-6.9504
X2.3751Y-5.7558
X2.3753Y-5.5657
X2.3764Y-4.8807
X2.4258Y-5.0557
X2.4258Y-5.3557
X2.4368Y-6.2783
X2.4368Y-6.4752
X2.5258Y-5.0557
X2.5258Y-5.3557
X2.5318Y-6.6504
X2.5318Y-6.9504
X2.5674Y-5.7558
X2.5674Y-5.5657
X2.5733Y-4.8807
X2.5868Y-1.4602
X2.5868Y-1.7602
X2.6028Y-2.6427
X2.6028Y-2.8396
X2.6258Y-5.0557
X2.6258Y-5.3557
X2.6658Y-5.7558
X2.7168Y-6.6504
X2.7168Y-6.9504
X2.7258Y-5.0557
X2.7258Y-5.3557
X2.7868Y-1.4602
X2.7868Y-1.7602
X2.8258Y-5.0557
X2.8258Y-5.3557
X2.8306Y-6.2077
X2.8306Y-6.5077
X2.8598Y-4.2567
X2.8598Y-4.4536
X2.8603Y-4.5942
X2.8603Y-4.8942
X2.8703Y-2.6428
X2.8703Y-2.9428
X2.9018Y-6.6504
X2.9018Y-6.9504
X2.9258Y-5.0557
X2.9258Y-5.3557
X2.9603Y-4.5942
X2.9603Y-4.8942
X2.9703Y-2.6428
X2.9703Y-2.9428
X3.0291Y-6.2593
X3.0291Y-6.4561
X3.0603Y-4.5942
X3.0603Y-4.8942
X3.0643Y-4.1542
X3.0643Y-4.4542
X3.0703Y-2.6428
X3.0703Y-2.9428
X3.0968Y-5.3752
X3.0968Y-5.6752
X3.1426Y-6.73
X3.1426Y-6.93
X3.1603Y-4.5942
X3.1603Y-4.8942
X3.1703Y-2.6428
X3.1703Y-2.9428
X3.1868Y-1.4602
X3.1868Y-1.7602
X3.2463Y-6.2073
X3.2463Y-6.5073
X3.2703Y-2.6428
X3.2703Y-2.9428
X3.2796Y-4.1482
X3.2796Y-4.4482
X3.2918Y-5.3752
X3.2918Y-5.6752
X3.3463Y-6.2073
X3.3463Y-6.5073
X3.3703Y-2.6428
X3.3703Y-2.9428
X3.4463Y-6.2073
X3.4463Y-6.5073
X3.4568Y-5.1202
X3.4568Y-5.3171
X3.4703Y-2.6428
X3.4703Y-2.9428
X3.4889Y-6.7306
X3.4889Y-6.9306
X3.4949Y-4.1482
X3.4949Y-4.4482
X3.5463Y-6.2073
X3.5463Y-6.5073
X3.5673Y-3.2432
X3.5673Y-3.5432
X3.5703Y-2.6428
X3.5703Y-2.9428
X3.5958Y-4.6139
X3.5958Y-4.9139
X3.7102Y-4.1482
X3.7102Y-4.4482
X3.7668Y-3.2432
X3.7668Y-3.5432
X3.8868Y-1.4602
X3.8868Y-1.7602
X3.8988Y-4.7112
X3.8988Y-4.849
X3.9255Y-4.1482
X3.9255Y-4.4482
X3.9661Y-3.2432
X3.9661Y-3.5432
X4.1408Y-4.1482
X4.1408Y-4.4482
X4.1518Y-5.8324
X4.1518Y-5.9702
X4.1654Y-3.2432
X4.1654Y-3.5432
X4.1868Y-1.4602
X4.1868Y-1.6571
X4.3368Y-5.3252
X4.3368Y-5.6252
X4.3647Y-3.2432
X4.3647Y-3.5432
X4.476Y-6.5002
X4.476Y-6.8002
X4.4793Y-4.5508
X4.4793Y-4.7477
X4.5268Y-5.3252
X4.5268Y-5.6252
X4.5639Y-3.2432
X4.5639Y-3.5432
X4.6018Y-5.8324
X4.6018Y-5.9702
X4.6984Y-6.5002
X4.6984Y-6.8002
X4.7632Y-3.2432
X4.7632Y-3.5432
X4.9618Y-6.2702
X4.9618Y-6.5702
X4.9625Y-3.2432
X4.9625Y-3.5432
X5.0108Y-5.0673
X5.0108Y-5.2642
X5.1518Y-6.2702
X5.1518Y-6.5702
X5.1618Y-3.2432
X5.1618Y-3.5432
T7
X4.9018Y-5.7702
X4.9018Y-6.0702
X5.0018Y-5.7702
X5.0018Y-6.0702
X5.1018Y-5.7702
X5.1018Y-6.0702
X5.2018Y-5.7702
X5.2018Y-6.0702
T8
X1.6855Y-6.7597
X1.6855Y-6.8597
T9
X4.7028Y-4.9982
T10
X2.3436Y-3.2687
X2.4436Y-3.2687
X2.6377Y-3.2687
X2.7377Y-3.2687
X2.9319Y-3.2687
X3.0319Y-3.2687
X3.226Y-3.2687
X3.326Y-3.2687
T11
X3.8068Y-5.4452
X4.0037Y-5.4452
T12
X1.602Y-4.1316
X1.602Y-4.3088
X1.858Y-4.1316
X1.858Y-4.3088
X1.982Y-3.7516
X1.982Y-3.9288
X1.982Y-4.1316
X1.982Y-4.3088
X1.982Y-4.5116
X1.982Y-4.6888
X2.238Y-3.7516
X2.238Y-3.9288
X2.238Y-4.1316
X2.238Y-4.3088
X2.238Y-4.5116
X2.238Y-4.6888
X2.362Y-4.1316
X2.362Y-4.3088
X2.618Y-4.1316
X2.618Y-4.3088
X3.4023Y-4.7137
X3.4023Y-4.8137
X3.4338Y-3.7816
X3.4338Y-3.9588
X3.6898Y-3.7816
X3.6898Y-3.9588
X3.8898Y-6.8852
X3.8898Y-6.9852
X4.0464Y-6.8838
X4.0464Y-6.9838
X4.1464Y-6.8838
X4.1464Y-6.9838
X4.1713Y-3.7816
X4.1713Y-3.9588
X4.2464Y-6.8838
X4.2464Y-6.9838
X4.2788Y-4.9267
X4.3788Y-4.9267
X4.4273Y-3.7816
X4.4273Y-3.9588
X4.4788Y-4.9267
X4.4878Y-6.9842
X4.5403Y-4.1971
X4.5403Y-4.3743
X4.5878Y-6.9842
X4.6878Y-6.9842
X4.7963Y-4.1971
X4.7963Y-4.3743
X4.9088Y-3.7816
X4.9088Y-3.9588
X5.1648Y-3.7816
X5.1648Y-3.9588
T13
X4.9718Y-4.4412
T14
X2.3868Y-1.3062
X2.4868Y-1.3062
X2.5868Y-1.3062
X2.6868Y-1.3062
X2.7868Y-1.3062
X2.8868Y-1.3062
X2.9868Y-1.3062
X3.0868Y-1.3062
X3.1868Y-1.3062
X3.2868Y-1.3062
X3.3868Y-1.3062
X3.4868Y-1.3062
X3.5868Y-1.3062
X3.6868Y-1.3062
X3.7668Y-2.5932
X3.7668Y-2.9932
X3.7868Y-1.3062
X3.8868Y-1.3062
X3.9661Y-2.5892
X3.9661Y-2.9892
X3.9868Y-1.3062
X4.0493Y-6.2277
X4.0493Y-6.6277
X4.0868Y-1.3062
X4.1654Y-2.5912
X4.1654Y-2.9912
X4.1868Y-1.3062
X4.2543Y-6.2277
X4.2543Y-6.6277
X4.2868Y-1.3062
X4.3647Y-2.5882
X4.3647Y-2.9882
X4.5639Y-2.5882
X4.5639Y-2.9882
X4.7318Y-5.2134
X4.7318Y-5.6134
X4.7632Y-2.5932
X4.7632Y-2.9932
X4.9625Y-2.5932
X4.9625Y-2.9932
X5.1618Y-2.5932
X5.1618Y-2.9932
T15
X4.9534Y-5.5102
X5.1502Y-5.5102
T16
X4.9638Y-6.8976
X5.1638Y-6.8976
T17
X1.5376Y-1.3652
X1.5376Y-2.3692
X5.136Y-1.3652
X5.136Y-2.3692
T0
M30
